<?xml version="1.0" encoding="utf-8"?><svg viewBox="0 0 42 35" xmlns="http://www.w3.org/2000/svg" xmlns:xlink="http://www.w3.org/1999/xlink"><style>:root>svg{display:none}:root>svg:target{display:block}</style><svg fill="none" viewBox="0 0 24 24" id="arrow-next" xmlns="http://www.w3.org/2000/svg"><path d="M3.532 3.484C5.855 1.16 8.677 0 12 0c3.323 0 6.161 1.161 8.516 3.484C22.84 5.839 24 8.677 24 12c0 3.323-1.161 6.145-3.484 8.468C18.161 22.823 15.323 24 12 24c-3.323 0-6.145-1.177-8.468-3.532C1.177 18.145 0 15.323 0 12c0-3.323 1.177-6.161 3.532-8.516zm13.984 7.693l-6.58-6.532a1.054 1.054 0 00-.823-.387c-.323 0-.597.13-.823.387l-.774.774c-.258.258-.387.533-.387.823 0 .323.13.597.387.823L13.403 12l-4.887 4.936c-.258.225-.387.5-.387.822 0 .323.13.597.387.823l.774.774c.258.258.549.387.871.387.29 0 .549-.13.774-.387l6.581-6.532c.226-.226.339-.5.339-.823a1.12 1.12 0 00-.339-.823z" fill="#E95D2A"/></svg><svg fill="none" viewBox="0 0 24 24" id="arrow-prev" xmlns="http://www.w3.org/2000/svg"><path d="M20.468 20.516C18.145 22.84 15.323 24 12 24c-3.323 0-6.161-1.161-8.516-3.484C1.16 18.161 0 15.323 0 12c0-3.323 1.161-6.145 3.484-8.468C5.839 1.177 8.677 0 12 0c3.323 0 6.145 1.177 8.468 3.532C22.823 5.855 24 8.677 24 12c0 3.323-1.177 6.161-3.532 8.516zM6.484 12.823l6.58 6.532c.226.258.5.387.823.387.323 0 .597-.13.823-.387l.774-.774c.258-.258.387-.533.387-.823 0-.322-.13-.597-.387-.822L10.597 12l4.887-4.935c.258-.226.387-.5.387-.823 0-.323-.13-.597-.387-.823l-.774-.774c-.258-.258-.549-.387-.871-.387-.29 0-.549.13-.774.387l-6.581 6.532a1.12 1.12 0 00-.339.823c0 .323.113.597.339.823z" fill="#E95D2A"/></svg><svg fill="none" viewBox="0 0 24 24" id="calendar-ico" xmlns="http://www.w3.org/2000/svg"><path d="M7.5 16.594a.738.738 0 01-.482-.164.774.774 0 01-.16-.492V12c0-.191.053-.342.16-.451a.65.65 0 01.482-.205h3.857a.53.53 0 01.442.205c.134.11.201.26.201.451v3.938a.678.678 0 01-.2.492c-.108.11-.255.164-.443.164H7.5zM19.071 4.125c.536 0 .991.191 1.366.574.375.383.563.848.563 1.395V20.53a1.92 1.92 0 01-.563 1.395 1.84 1.84 0 01-1.366.574H4.93a1.84 1.84 0 01-1.367-.574A1.919 1.919 0 013 20.53V6.094c0-.547.188-1.012.563-1.395a1.84 1.84 0 011.366-.574h1.928V2.156c0-.191.054-.342.16-.45A.65.65 0 017.5 1.5h1.286a.53.53 0 01.442.205c.134.11.2.26.2.451v1.969h5.143V2.156c0-.191.054-.342.161-.45a.651.651 0 01.482-.206H16.5a.53.53 0 01.442.205c.134.11.2.26.2.451v1.969h1.93zm0 16.16V8.062H4.93v12.223c0 .164.08.246.24.246h13.66c.161 0 .241-.082.241-.246z" fill="#BEBEBE"/></svg><svg fill="none" viewBox="0 0 12 13" id="icon-close" xmlns="http://www.w3.org/2000/svg"><rect x="1.334" width="15.085" height="1.886" rx=".943" transform="rotate(45 1.334 0)" fill="#0C061A"/><rect y="10.668" width="15.085" height="1.886" rx=".943" transform="rotate(-45 0 10.668)" fill="#0C061A"/></svg><svg fill="none" viewBox="0 0 36 34" id="popup-1-ico-1" xmlns="http://www.w3.org/2000/svg"><path d="M33.166 9.624h-6.855c.492-.336.914-.67 1.209-.968a4.533 4.533 0 000-6.375c-1.697-1.707-4.656-1.71-6.355 0-.938.943-3.432 4.78-3.087 7.343h-.156c.342-2.563-2.15-6.4-3.088-7.343-1.699-1.71-4.658-1.707-6.355 0a4.535 4.535 0 00-.002 6.375c.297.299.72.632 1.211.968H2.833a2.17 2.17 0 00-2.167 2.167v5.417c0 .598.485 1.083 1.083 1.083h1.084v13a2.17 2.17 0 002.166 2.167h26a2.17 2.17 0 002.167-2.167v-13h1.084c.598 0 1.083-.485 1.083-1.083V11.79a2.17 2.17 0 00-2.167-2.167zM10.016 3.81a2.301 2.301 0 011.642-.685 2.3 2.3 0 011.64.685c1.46 1.469 2.912 5.222 2.407 5.744 0 0-.091.071-.4.071-1.498 0-4.356-1.555-5.29-2.496a2.363 2.363 0 010-3.32zm6.9 27.482H5v-13h11.917v13zm0-15.167H2.833v-4.333h14.083v4.333zM22.701 3.81c.88-.882 2.405-.88 3.283 0a2.363 2.363 0 010 3.32c-.934.94-3.792 2.495-5.29 2.495-.309 0-.4-.07-.402-.071-.503-.522.949-4.275 2.41-5.744zM31 31.29H19.083v-13H31v13zm2.166-15.167H19.083V11.79h14.083v4.333z" fill="#E95D2A" stroke="#E95D2A"/></svg><svg fill="none" viewBox="0 0 42 29" id="popup-1-ico-2" xmlns="http://www.w3.org/2000/svg"><path d="M36.834 1H5.166A4.172 4.172 0 001 5.167V23.5a4.172 4.172 0 004.167 4.167h31.666A4.172 4.172 0 0041 23.5V5.167A4.172 4.172 0 0036.834 1zm2.5 22.5c0 1.378-1.122 2.5-2.5 2.5H5.166a2.503 2.503 0 01-2.5-2.5V5.167c0-1.379 1.121-2.5 2.5-2.5h31.666c1.379 0 2.5 1.121 2.5 2.5V23.5h0z" fill="#E95D2A" stroke="#E95D2A" stroke-width="1.1"/><path d="M40.167 6H1.833A.834.834 0 001 6.833v5c0 .46.373.834.833.834h38.334c.46 0 .833-.374.833-.834v-5A.834.834 0 0040.167 6zm-.834 5H2.668V7.667h36.666V11h0z" fill="#E95D2A" stroke="#E95D2A" stroke-width="1.1"/><path d="M16.833 17.667h-10a.834.834 0 000 1.667h10a.834.834 0 000-1.667zm0 3.333h-10a.834.834 0 000 1.667h10a.834.834 0 000-1.667zM33.5 16h-1.666a2.503 2.503 0 00-2.5 2.5v1.667c0 1.378 1.122 2.5 2.5 2.5h1.667c1.378 0 2.5-1.122 2.5-2.5V18.5c0-1.378-1.122-2.5-2.5-2.5zm.834 4.167c0 .46-.373.833-.833.833h-1.667a.834.834 0 01-.833-.833V18.5c0-.46.373-.833.833-.833h1.667c.46 0 .833.373.833.833v1.667z" fill="#E95D2A" stroke="#E95D2A" stroke-width=".6"/></svg><svg fill="none" viewBox="0 0 39 35" id="popup-1-ico-3" xmlns="http://www.w3.org/2000/svg"><path d="M7.392 23.725a.71.71 0 100 1.42.71.71 0 000-1.42zm0 4.261a.71.71 0 100 1.42.71.71 0 000-1.42z" fill="#E95D2A" stroke="#E95D2A" stroke-width="1.5"/><path d="M33.809 1H4.551A3.555 3.555 0 001 4.55v4.262c0 .392.318.71.71.71h.71v22.015c0 1.174.956 2.13 2.13 2.13h29.26c1.175 0 2.13-.956 2.13-2.13V9.521h.71a.71.71 0 00.71-.71V4.55A3.555 3.555 0 0033.81 1zM22.021 18.697l-2.398-1.918a.71.71 0 00-.887 0l-2.397 1.918V2.42h5.681v16.277zM2.42 4.55c0-1.175.955-2.13 2.13-2.13h10.368V8.1H2.42V4.55zm32.098 26.986a.71.71 0 01-.71.71H4.551a.71.71 0 01-.71-.71V9.521h11.078v10.652a.71.71 0 001.154.555l3.107-2.486 3.107 2.486a.71.71 0 001.154-.555V9.522h11.078v22.015zm1.42-23.435H23.442V2.42H33.81c1.175 0 2.13.956 2.13 2.13v3.552z" fill="#E95D2A" stroke="#E95D2A" stroke-width="1.5"/><path d="M23.44 23.725a.71.71 0 00-.71.71v4.26c0 .393.318.71.71.71h7.528a.71.71 0 00.71-.71v-4.26a.71.71 0 00-.71-.71h-7.527zm6.818 4.26h-6.107v-2.84h6.107v2.84zm-15.339-4.26h-4.687a.71.71 0 100 1.42h4.687a.71.71 0 100-1.42zm0 4.261h-4.687a.71.71 0 100 1.42h4.687a.71.71 0 100-1.42z" fill="#E95D2A" stroke="#E95D2A" stroke-width="1.5"/></svg><svg fill="none" viewBox="0 0 36 35" id="popup-1-ico-4" xmlns="http://www.w3.org/2000/svg"><path d="M31.27 2.708h-1.625V0h-2.708v2.708H9.062V0H6.354v2.708H4.729A4.067 4.067 0 00.666 6.771v23.834a4.067 4.067 0 004.063 4.062H31.27a4.067 4.067 0 004.063-4.063V6.772a4.067 4.067 0 00-4.063-4.063zm1.355 27.897c0 .746-.608 1.354-1.355 1.354H4.73a1.356 1.356 0 01-1.355-1.354V12.729h29.25v17.876zm0-20.584H3.375V6.77c0-.747.607-1.354 1.354-1.354h1.625v2.708h2.708V5.417h17.875v2.708h2.708V5.417h1.625c.747 0 1.355.607 1.355 1.354v3.25z" fill="#E95D2A"/><path d="M8.52 15.573H5.814v2.709H8.52v-2.709zm5.417 0h-2.708v2.709h2.708v-2.709zm5.416 0h-2.709v2.709h2.709v-2.709zm5.417 0h-2.707v2.709h2.708v-2.709zm5.417 0h-2.709v2.709h2.709v-2.709zM8.52 20.99H5.814v2.708H8.52V20.99zm5.417 0h-2.708v2.708h2.708V20.99zm5.416 0h-2.709v2.708h2.709V20.99zm5.417 0h-2.707v2.708h2.708V20.99zM8.52 26.407H5.814v2.708H8.52v-2.708zm5.417 0h-2.708v2.708h2.708v-2.708zm5.416 0h-2.709v2.708h2.709v-2.708zm5.417 0h-2.707v2.708h2.708v-2.708zm5.417-5.417h-2.709v2.708h2.709V20.99z" fill="#E95D2A"/></svg></svg>