<svg width="24" height="24" fill="none" xmlns="http://www.w3.org/2000/svg"><path d="M20.468 20.516C18.145 22.84 15.323 24 12 24c-3.323 0-6.161-1.161-8.516-3.484C1.16 18.161 0 15.323 0 12c0-3.323 1.161-6.145 3.484-8.468C5.839 1.177 8.677 0 12 0c3.323 0 6.145 1.177 8.468 3.532C22.823 5.855 24 8.677 24 12c0 3.323-1.177 6.161-3.532 8.516zM6.484 12.823l6.58 6.532c.226.258.5.387.823.387.323 0 .597-.13.823-.387l.774-.774c.258-.258.387-.533.387-.823 0-.322-.13-.597-.387-.822L10.597 12l4.887-4.935c.258-.226.387-.5.387-.823 0-.323-.13-.597-.387-.823l-.774-.774c-.258-.258-.549-.387-.871-.387-.29 0-.549.13-.774.387l-6.581 6.532a1.12 1.12 0 00-.339.823c0 .323.113.597.339.823z" fill="#E95D2A"/></svg>