<svg width="24" height="24" fill="none" xmlns="http://www.w3.org/2000/svg"><path d="M7.5 16.594a.738.738 0 01-.482-.164.774.774 0 01-.16-.492V12c0-.191.053-.342.16-.451a.65.65 0 01.482-.205h3.857a.53.53 0 01.442.205c.134.11.201.26.201.451v3.938a.678.678 0 01-.2.492c-.108.11-.255.164-.443.164H7.5zM19.071 4.125c.536 0 .991.191 1.366.574.375.383.563.848.563 1.395V20.53c0 .547-.188 1.012-.563 1.395-.375.383-.83.574-1.366.574H4.93a1.84 1.84 0 01-1.367-.574A1.919 1.919 0 013 20.53V6.094c0-.547.188-1.012.563-1.395a1.84 1.84 0 011.366-.574h1.928V2.156c0-.191.054-.342.16-.45A.65.65 0 017.5 1.5h1.286a.53.53 0 01.442.205c.134.11.2.26.2.451v1.969h5.143V2.156c0-.191.054-.342.161-.45a.651.651 0 01.482-.206H16.5a.53.53 0 01.442.205c.134.11.2.26.2.451v1.969h1.93zm0 16.16V8.062H4.93v12.223c0 .164.08.246.24.246H18.83c.161 0 .241-.082.241-.246z" fill="#BEBEBE"/></svg>