<svg width="39" height="35" fill="none" xmlns="http://www.w3.org/2000/svg"><path d="M7.392 23.725a.71.71 0 100 1.42.71.71 0 000-1.42zM7.392 27.986a.71.71 0 100 1.42.71.71 0 000-1.42z" fill="#E95D2A" stroke="#E95D2A" stroke-width="1.5"/><path d="M33.809 1H4.551A3.555 3.555 0 001 4.55v4.262c0 .392.318.71.71.71h.71v22.015c0 1.174.956 2.13 2.13 2.13H33.81c1.175 0 2.13-.956 2.13-2.13V9.521h.71a.71.71 0 00.71-.71V4.55A3.555 3.555 0 0033.81 1zM22.021 18.697l-2.398-1.918a.71.71 0 00-.887 0l-2.397 1.918V2.42h5.681v16.277zM2.42 4.55c0-1.175.955-2.13 2.13-2.13h10.368V8.1H2.42v-3.55zm32.098 26.986a.71.71 0 01-.71.71H4.551a.71.71 0 01-.71-.71V9.521h11.078v10.652a.71.71 0 001.154.555l3.107-2.486 3.107 2.486a.71.71 0 001.154-.555V9.522h11.078v22.015zm1.42-23.435H23.442V2.42h10.368c1.175 0 2.13.956 2.13 2.13v3.552z" fill="#E95D2A" stroke="#E95D2A" stroke-width="1.5"/><path d="M23.44 23.725a.71.71 0 00-.71.71v4.26c0 .393.318.71.71.71h7.528a.71.71 0 00.71-.71v-4.26a.71.71 0 00-.71-.71h-7.527zm6.818 4.26h-6.107v-2.84h6.107v2.84zM14.919 23.725h-4.687a.71.71 0 100 1.42h4.687a.71.71 0 100-1.42zM14.919 27.986h-4.687a.71.71 0 100 1.42h4.687a.71.71 0 100-1.42z" fill="#E95D2A" stroke="#E95D2A" stroke-width="1.5"/></svg>