<svg width="42" height="29" fill="none" xmlns="http://www.w3.org/2000/svg"><path d="M36.834 1H5.166A4.172 4.172 0 001 5.167V23.5a4.172 4.172 0 004.167 4.167h31.666A4.172 4.172 0 0041 23.5V5.167A4.172 4.172 0 0036.834 1zm2.5 22.5c0 1.378-1.122 2.5-2.5 2.5H5.166a2.503 2.503 0 01-2.5-2.5V5.167c0-1.379 1.121-2.5 2.5-2.5h31.666c1.379 0 2.5 1.121 2.5 2.5V23.5h0z" fill="#E95D2A" stroke="#E95D2A" stroke-width="1.1"/><path d="M40.167 6H1.833A.834.834 0 001 6.833v5c0 .46.373.834.833.834h38.334c.46 0 .833-.374.833-.834v-5A.834.834 0 0040.167 6zm-.834 5H2.668V7.667h36.666V11h0z" fill="#E95D2A" stroke="#E95D2A" stroke-width="1.1"/><path d="M16.833 17.667h-10a.834.834 0 000 1.667h10a.834.834 0 000-1.667zM16.833 21h-10a.834.834 0 000 1.667h10a.834.834 0 000-1.667zM33.5 16h-1.666a2.503 2.503 0 00-2.5 2.5v1.667c0 1.378 1.122 2.5 2.5 2.5h1.667c1.378 0 2.5-1.122 2.5-2.5V18.5c0-1.378-1.122-2.5-2.5-2.5zm.834 4.167c0 .46-.373.833-.833.833h-1.667a.834.834 0 01-.833-.833V18.5c0-.46.373-.833.833-.833h1.667c.46 0 .833.373.833.833v1.667z" fill="#E95D2A" stroke="#E95D2A" stroke-width=".6"/></svg>