<svg width="36" height="34" fill="none" xmlns="http://www.w3.org/2000/svg"><path d="M33.166 9.624h-6.855c.492-.336.914-.67 1.209-.968a4.533 4.533 0 000-6.375c-1.697-1.707-4.656-1.71-6.355 0-.938.943-3.432 4.78-3.087 7.343h-.156c.342-2.563-2.15-6.4-3.088-7.343-1.699-1.71-4.658-1.707-6.355 0a4.535 4.535 0 00-.002 6.375c.297.299.72.632 1.211.968H2.833a2.17 2.17 0 00-2.167 2.167v5.417c0 .598.485 1.083 1.083 1.083h1.084v13a2.17 2.17 0 002.166 2.167h26a2.17 2.17 0 002.167-2.167v-13h1.084c.598 0 1.083-.485 1.083-1.083V11.79a2.17 2.17 0 00-2.167-2.167zM10.016 3.81a2.301 2.301 0 011.642-.685 2.3 2.3 0 011.64.685c1.46 1.469 2.912 5.222 2.407 5.744 0 0-.091.071-.4.071-1.498 0-4.356-1.555-5.29-2.496a2.363 2.363 0 010-3.32zm6.9 27.482H5v-13h11.917v13zm0-15.167H2.833v-4.333h14.083v4.333zM22.701 3.81c.88-.882 2.405-.88 3.283 0a2.363 2.363 0 010 3.32c-.934.94-3.792 2.495-5.29 2.495-.309 0-.4-.07-.402-.071-.503-.522.949-4.275 2.41-5.744zM31 31.29H19.083v-13H31v13zm2.166-15.167H19.083v-4.333h14.083v4.333z" fill="#E95D2A" stroke="#E95D2A"/></svg>