<svg width="36" height="35" fill="none" xmlns="http://www.w3.org/2000/svg"><path d="M31.27 2.708h-1.625V0h-2.708v2.708H9.062V0H6.354v2.708H4.729A4.067 4.067 0 00.666 6.771v23.834a4.067 4.067 0 004.063 4.062H31.27a4.067 4.067 0 004.063-4.063V6.772a4.067 4.067 0 00-4.063-4.063zm1.355 27.897c0 .746-.608 1.354-1.355 1.354H4.73a1.356 1.356 0 01-1.355-1.354V12.729h29.25v17.876zm0-20.584H3.375V6.77c0-.747.607-1.354 1.354-1.354h1.625v2.708h2.708V5.417h17.875v2.708h2.708V5.417h1.625c.747 0 1.355.607 1.355 1.354v3.25z" fill="#E95D2A"/><path d="M8.52 15.573H5.814v2.709H8.52v-2.709zM13.937 15.573h-2.708v2.709h2.708v-2.709zM19.353 15.573h-2.709v2.709h2.709v-2.709zM24.77 15.573h-2.707v2.709h2.708v-2.709zM30.187 15.573h-2.709v2.709h2.709v-2.709zM8.52 20.99H5.814v2.708H8.52V20.99zM13.937 20.99h-2.708v2.708h2.708V20.99zM19.353 20.99h-2.709v2.708h2.709V20.99zM24.77 20.99h-2.707v2.708h2.708V20.99zM8.52 26.407H5.814v2.708H8.52v-2.708zM13.937 26.407h-2.708v2.708h2.708v-2.708zM19.353 26.407h-2.709v2.708h2.709v-2.708zM24.77 26.407h-2.707v2.708h2.708v-2.708zM30.187 20.99h-2.709v2.708h2.709V20.99z" fill="#E95D2A"/></svg>